<?xml version="1.0" encoding="UTF-8"?>
<svg id="Foundation_Logo_Simple" data-name="Foundation Logo Simple" xmlns="http://www.w3.org/2000/svg" viewBox="0 0 533.3 737.43">
  <defs>
    <style>
      .cls-3, .cls-4, .cls-5, .cls-6, .cls-7, .cls-8, .cls-9, .cls-10, .cls-11 {
        stroke: #000;
        stroke-linejoin: round;
      }
      .cls-3, .cls-4, .cls-6, .cls-8, .cls-10, .cls-11 {
        stroke-linecap: round;
      }
      .cls-3, .cls-5 {
        fill: red;
        stroke-width: 4.3px;
      }
      .cls-4 {
        stroke-width: 4.3px;
      }
      .cls-4, .cls-12, .cls-7, .cls-8, .cls-10, .cls-11 {
        fill: #fff;
      }
      .cls-6, .cls-7, .cls-9, .cls-11 {
        stroke-width: 5.7px;
      }
      .cls-6, .cls-9 {
        fill: none;
      }
      .cls-8 {
        stroke-width: 14.2px;
      }
      .cls-13 {
        fill: #070000;
      }
      .cls-10 {
        stroke-width: 9.9px;
      }
    </style>
  </defs>
  <g id="Shield">
    <path id="Outer" class="cls-8" d="M7.1,118.73v331.7c0,140.9,257.7,279.9,257.7,279.9,0,0,261.4-141.6,261.4-266.6s-3-344.3-3-344.3c0,0-141.8-38.5-255.5-38.5S7.1,118.73,7.1,118.73h0Z"/>
    <path id="Inner" class="cls-10" d="M28.7,135.53v304.3c0,129.3,236.4,256.7,236.4,256.7,0,0,239.8-129.9,239.8-244.5s-2.7-315.8-2.7-315.8c0,0-130-35.3-234.3-35.3S28.8,135.53,28.8,135.53h-.1Z"/>
  </g>
  <g id="Hanging">
    <g id="Rpoe">
      <path id="Bottom_R" data-name="Bottom R" class="cls-3" d="M402.7,364.33v59.4"/>
      <path id="Top_Rope" data-name="Top Rope" class="cls-5" d="M415.7,241.23v56.1"/>
    </g>
    <path id="Gnome" class="cls-13" d="M433.9,275.03c5-2.9,11-1.3,12-8.1,13.5,6.5-9.3,36.7,8,36.4,5.4,0-3.5,12.2-5.5,14.1s1.6,6-.5,8.2-.4,2.7.5,5.1-1.8,12.6-5.9,15.8,3.4,8-1,10.7c-4.5,2.7-4.7.4-6.7,1.6s0,5.4-3.8,6.4-17.9,3.5-21.5-2.2c-3.5-5.8-4.7,11.1-11.9,15.2-1.6.9-22.3-.9-23-1.3-4.2-2.6-11.4-6.4-11.4-8.9s3.8-.5,2.2-3.8c-1.6-3.3-5.4-12.6-1.7-12.3,20.4,1.7,17.9,6.2,21.9-12.8,2.7-14.1,20.8-7.1,23.3-7.3,2.5-.3,3.3-4.8.7-5.8-2.6-.9-15.7,1.4-14-10.1s17.8-25.4,19.8-24.7c2,.7,4.2,4.7,5.3,3.9,1.1-.9,9.1-17.5,13.3-20.1h-.1Z"/>
  </g>
  <g id="Shovel">
    <path id="Head" d="M353.3,179.43c17.9,31.1,28.3,41.8,46.6,72.6,95.6-41.7,74.8-97.7,74.8-97.7,0,0-40.2-37.8-121.4,25.2h0v-.1Z"/>
    <rect id="Body" class="cls-4" x="30.64" y="308.44" width="342.7" height="16" transform="translate(-131.16 143.39) rotate(-30)"/>
    <rect id="Neck" x="338.06" y="207.3" width="65.6" height="23.6" transform="translate(-59.86 214.78) rotate(-30)"/>
  </g>
  <g id="Bear">
    <path id="Body1" d="M113.3,176.63s38.7,4.4,43.8,36c5.2,32.6,10.3,70.4,48.4,57.5,5.4-1.8,10.1-30.4-7.7-35.8-6.4-1.9-9.8-7.1-13.9-11.3s4.1-4.8,4.1-6.1-17.2-17-10.3-24.5c7.8-8.6,24-2.4,29.1-8.9,8.5-10.9,14.8-18,23.3-18.6,5.9-.4,2.5-10.8,12-12.6,8.2-1.6,11.5,9.9,16.9,9.8,4.8,0,6.1-10.2,16-10.1,11.8.1,11.1,19,15.6,23.8,8.8,9.6,14.5,14.8,20.4,26.5,2.3,4.6,4.4,9.4,2.3,13.8-1.4,2.8,8.8,10.9,8.6,16.2-.2,8.4,4.9,20,7.7,28.4,3.2,9.7.4,24.3,3,29.6,4.9,10,3.4,32.5,3.4,32.5l-2.7.3,2.1,9.6-2.6.4c.4,4.6.9,8.5.5,10s-3.1,1.3-2.4,2.5c4.3,8.1,0,16.5,0,16.5,0,0-3.9-7.3-5.9-3.4-3.7,40,7.1,78.4,16.1,116.7,1.5,7.4,1.6,16.2.7,17.9-2.4,4.2-9.2-.2-9.8.4-1.2,1.2,11.7,26.3,14.5,28.3-5.5,27.4-178.9,34.3-189.1,3.1-9.1-26.5,9.5-51.6,18.9-69,2.1-3.9,5.1-16.1,5.1-16.1,0,0,4.2,5.9,5.7,4.4.8-.8.5-13.5-.8-26.1-1.3-13.1-7.3-23.2-5.8-26.9,1.5-1.8,10.4,1.1,12.6,1.4,4,.7,2.8-3.6,2.8-3.6,0,0,12.4,4.4,14.8,3,.8-.5,1.4-3.6,1.4-3.6-34.2,4.6-37.9-68.8-71.9-74.5-7.3-1-6.9-12.3-7.9-14-6.6-.9-4.5-6.5-7.3-10.7-2.9-4.3-5.2-1-5.2-1,0,0-6.9-13.2-5.8-26.8,2.1-25.3-1.6-36.7-5.2-49.7-.8-3-14.1-19.2-14.1-19.2,0,0,6.5-3.7,10.9-2,2.7,1-6.8-10.3-6.8-10.3,0,0,5.5-3.1,14.9,3.3,1.3.9-.2-6.9-.2-6.9h0l-.2-.2Z"/>
    <path id="Paw" d="M226.3,387.03c-8.7-2.2-14.3-6.1-14.4,1.6,0,0-2.2-.8-7.5-1.5-7.6-1-13.5-7.7-18.3-12.6s1.9,4.7.3,5.5c-3.2,1.6-13.7-2.7-16.2-4-7.4-3.7-8.4-10-15.2-12.2-5.5-1.8-33,12.7-41.6,8.4-.9-.5,3.2-11.6,3.4-12.8,2.1-12.1-5.4-10.3-5.4-10.3,15-29.6,36-34.9,47.8-34,1.9.2,15.4,4.1,15.4,4.1"/>
    <circle id="Eye" class="cls-12" cx="230.8" cy="186.63" r="3.2"/>
  </g>
</svg>
