<?xml version="1.0" encoding="UTF-8"?>
<svg id="Foundation_Image_Not_Found_Logo" data-name="Foundation Image Not Found Logo" xmlns="http://www.w3.org/2000/svg" viewBox="0 0 533.2 737.37">
  <defs>
    <style>
      .cls-1 {
        font-size: 75px;
      }

      .cls-1, .cls-2 {
        font-family: TimesNewRomanPS-BoldMT, 'Times New Roman';
        font-weight: 700;
      }

      .cls-3 {
        stroke-width: 14.2px;
      }

      .cls-3, .cls-4, .cls-5, .cls-6, .cls-7, .cls-8, .cls-9, .cls-10, .cls-11 {
        stroke-linejoin: round;
      }

      .cls-3, .cls-4, .cls-5, .cls-6, .cls-8, .cls-12, .cls-9 {
        stroke-linecap: round;
      }

      .cls-3, .cls-4, .cls-6, .cls-7, .cls-8, .cls-9, .cls-10, .cls-11 {
        stroke: #000;
      }

      .cls-3, .cls-5, .cls-6, .cls-9, .cls-10 {
        fill: #fff;
      }

      .cls-4, .cls-13, .cls-11 {
        fill: red;
      }

      .cls-4, .cls-11 {
        stroke-width: 4.3px;
      }

      .cls-5 {
        stroke-width: 4.3px;
      }

      .cls-5, .cls-12 {
        stroke: red;
      }

      .cls-6, .cls-7, .cls-8, .cls-10 {
        stroke-width: 5.7px;
      }

      .cls-7, .cls-8, .cls-12 {
        fill: none;
      }

      .cls-12 {
        stroke-miterlimit: 10;
        stroke-width: 5px;
      }

      .cls-9 {
        stroke-width: 9.9px;
      }

      .cls-2 {
        font-size: 45px;
      }

      .cls-14 {
        fill: #070000;
      }
    </style>
  </defs>
  <g id="Shield">
    <path id="Outer" class="cls-3" d="M7.1,118.79v331.64c0,140.87,257.65,279.85,257.65,279.85,0,0,261.35-141.57,261.35-266.55s-3-344.23-3-344.23c0,0-141.77-38.49-255.45-38.49S7.1,118.79,7.1,118.79h0Z"/>
    <path id="Inner" class="cls-9" d="M33.1,138.43v304.3c0,129.3,236.3,256.7,236.3,256.7,0,0,239.7-129.9,239.7-244.5s-2.7-315.8-2.7-315.8c0,0-129.95-35.3-234.2-35.3s-239,34.6-239,34.6h-.1Z"/>
  </g>
  <g id="Hanging">
    <g id="Rpoe">
      <path id="Bottom_R" data-name="Bottom R" class="cls-4" d="M400.1,364.43v59"/>
      <path id="Top_Rope" data-name="Top Rope" class="cls-11" d="M413.1,241.43v56"/>
    </g>
    <path id="Gnome" class="cls-14" d="M431,275.43c5-2.9,11-1.3,12-8.1,13.5,6.5-9.3,36.7,8,36.4,5.4,0-3.5,12.2-5.5,14.1s1.6,6-.5,8.2-.4,2.7.5,5.1-1.8,12.6-5.9,15.8,3.4,8-1,10.7c-4.5,2.7-4.7.4-6.7,1.6s0,5.4-3.8,6.4-17.9,3.5-21.5-2.2c-3.5-5.8-4.7,11.1-11.9,15.2-1.6.9-22.3-.9-23-1.3-4.2-2.6-11.4-6.4-11.4-8.9s3.8-.5,2.2-3.8c-1.6-3.3-5.4-12.6-1.7-12.3,20.4,1.7,17.9,6.2,21.9-12.8,2.7-14.1,20.8-7.1,23.3-7.3,2.5-.3,3.3-4.8.7-5.8-2.6-.9-15.7,1.4-14-10.1s17.8-25.4,19.8-24.7c2,.7,4.2,4.7,5.3,3.9,1.1-.9,9.1-17.5,13.3-20.1h-.1Z"/>
  </g>
  <g id="Bear">
    <path id="Body1" d="M110.4,176.63s38.7,4.4,43.8,36c5.2,32.6,10.3,70.4,48.4,57.5,5.4-1.8,10.1-30.4-7.7-35.8-6.4-1.9-9.8-7.1-13.9-11.3s4.1-4.8,4.1-6.1-17.2-17-10.3-24.5c7.8-8.6,24-2.4,29.1-8.9,8.5-10.9,14.8-18,23.3-18.6,5.9-.4,2.5-10.8,12-12.6,8.2-1.6,11.5,9.9,16.9,9.8,4.8,0,6.1-10.2,16-10.1,11.8.1,11.1,19,15.6,23.8,8.8,9.6,14.5,14.8,20.4,26.5,2.3,4.6,4.4,9.4,2.3,13.8-1.4,2.8,8.8,10.9,8.6,16.2-.2,8.4,4.9,20,7.7,28.4,3.2,9.7.4,24.3,3,29.6,4.9,10,3.4,32.5,3.4,32.5l-2.7.3,2.1,9.6-2.6.4c.4,4.6.9,8.5.5,10s-3.1,1.3-2.4,2.5c4.3,8.1,0,16.5,0,16.5,0,0-3.9-7.3-5.9-3.4-3.7,40,7.1,78.4,16.1,116.7,1.5,7.4,1.6,16.2.7,17.9-2.4,4.2-9.2-.2-9.8.4-1.2,1.2,11.7,26.3,14.5,28.3-5.5,27.4-178.9,34.3-189.1,3.1-9.1-26.5,9.5-51.6,18.9-69,2.1-3.9,5.1-16.1,5.1-16.1,0,0,4.2,5.9,5.7,4.4.8-.8.5-13.5-.8-26.1-1.3-13.1-7.3-23.2-5.8-26.9,1.5-1.8,10.4,1.1,12.6,1.4,4,.7,2.8-3.6,2.8-3.6,0,0,12.4,4.4,14.8,3,.8-.5,1.4-3.6,1.4-3.6-34.2,4.6-37.9-68.8-71.9-74.5-7.3-1-6.9-12.3-7.9-14-6.6-.9-4.5-6.5-7.3-10.7-2.9-4.3-5.2-1-5.2-1,0,0-6.9-13.2-5.8-26.8,2.1-25.3-1.6-36.7-5.2-49.7-.8-3-14.1-19.2-14.1-19.2,0,0,6.5-3.7,10.9-2,2.7,1-6.8-10.3-6.8-10.3,0,0,5.5-3.1,14.9,3.3,1.3.9-.2-6.9-.2-6.9h0l-.2-.2Z"/>
    <path id="Paw" d="M223.4,387.03c-8.7-2.2-14.3-6.1-14.4,1.6,0,0-2.2-.8-7.5-1.5-7.6-1-13.5-7.7-18.3-12.6s1.9,4.7.3,5.5c-3.2,1.6-13.7-2.7-16.2-4-7.4-3.7-8.4-10-15.2-12.2-5.5-1.8-33,12.7-41.6,8.4-.9-.5,3.2-11.6,3.4-12.8,2.1-12.1-5.4-10.3-5.4-10.3,15-29.6,36-34.9,47.8-34,1.9.2,15.4,4.1,15.4,4.1"/>
    <g id="X">
      <line id="Down" class="cls-12" x1="214.06" y1="183.26" x2="230.4" y2="199.59"/>
      <line id="Up" class="cls-12" x1="230.4" y1="183.26" x2="214.06" y2="199.59"/>
    </g>
  </g>
  <g id="Crossed_Shovels" data-name="Crossed Shovels">
    <g id="Up-2" data-name="Up">
      <path id="Head" class="cls-13" d="M401.61,245.72l-42.37-72.27c71.18-52.21,122.21-20.93,122.21-20.93,0,0-2.64,61.53-79.84,93.19Z"/>
      <rect id="Body" class="cls-5" x="27.74" y="308.44" width="342.7" height="16" transform="translate(-131.55 141.94) rotate(-30)"/>
      <rect id="Neck" class="cls-13" x="335.16" y="207.3" width="65.6" height="23.6" transform="translate(-60.25 213.33) rotate(-30)"/>
    </g>
    <g id="Down-2" data-name="Down">
      <path id="Head-2" data-name="Head" class="cls-13" d="M368.24,375.17l41.4-72.83c80.8,35.53,79.23,95.37,79.23,95.37,0,0-54.61,28.48-120.62-22.54Z"/>
      <rect id="Body-2" data-name="Body" class="cls-5" x="34.38" y="227.14" width="342.7" height="16" transform="translate(145.13 -71.36) rotate(30)"/>
      <rect id="Neck-2" data-name="Neck" class="cls-13" x="341.66" y="320.91" width="65.6" height="23.6" transform="translate(216.53 -142.66) rotate(30)"/>
    </g>
  </g>
  <g id="Scroll">
    <g id="Folds">
      <g id="Left">
        <path id="path8" class="cls-6" d="M23,611.83l10.7,81.4,93.7-20-20-78.1-84.4,16.7h0Z"/>
        <g id="Shading">
          <path id="path9" class="cls-7" d="M58.2,645.93l69.2,27.4"/>
          <path id="path10" class="cls-7" d="M82,641.33l2.1,14.9"/>
          <path id="path11" class="cls-7" d="M90.4,639.43l3.6,20.7"/>
          <path id="path12" class="cls-7" d="M98.3,637.73l4.9,26"/>
          <path id="path13" class="cls-7" d="M106.3,636.13l7.2,31.7"/>
          <path id="path15" class="cls-7" d="M73.7,643.33l1.9,8.5"/>
        </g>
      </g>
      <g id="Right">
        <path id="path8-3" class="cls-6" d="M509.2,610.93l-10.7,81.4-93.7-20,20-78.1,84.4,16.7h0Z"/>
        <g id="Shading1">
          <path id="path16" class="cls-7" d="M478,646.03l-71.8,24.1"/>
          <path id="path17" class="cls-7" d="M454.4,640.23l-2.4,14.5"/>
          <path id="path18" class="cls-7" d="M446,638.43l-3.9,19.7"/>
          <path id="path19" class="cls-7" d="M438.3,636.83l-5.5,24.4"/>
          <path id="path20" class="cls-7" d="M428.7,634.83l-5.6,29.6"/>
          <path id="path21" class="cls-7" d="M421.3,633.53l-8.4,34.3"/>
          <path id="path22" class="cls-7" d="M462.7,642.23l-2.3,9.7"/>
        </g>
      </g>
    </g>
    <g id="Front">
      <path id="Main" class="cls-10" d="M42.6,563.73c115.3-66.5,362.5-52.3,446.6-3.7,4.7,8.2-9.9,78-12,85.9-125.4-33.6-285.6-34.4-417.8,1-4.2-15.7-16.8-69-16.8-83.2h0Z"/>
      <g id="Shading2">
        <g id="Right1">
          <path id="path26" class="cls-8" d="M477.9,569.63l12.1,2.6"/>
          <path id="path27" class="cls-8" d="M475.5,585.03l12.6,3.5"/>
          <path id="path28" class="cls-8" d="M473.1,600.43l12.8,2.2"/>
          <path id="path29" class="cls-8" d="M469.9,616.23l13,2.5"/>
          <path id="path30" class="cls-8" d="M467.8,632.93l11.8,2.5"/>
        </g>
        <g id="Left1">
          <path id="path31" class="cls-8" d="M56.9,637.23l12.5-3.9"/>
          <path id="path32" class="cls-8" d="M53.2,621.63c1.1,0,13.8-3.4,13.8-3.4"/>
          <path id="path33" class="cls-8" d="M49.8,606.53l14.2-3.7"/>
          <path id="path34" class="cls-8" d="M46.7,591.53l15-5.9"/>
          <path id="path35" class="cls-8" d="M43.9,576.03l13.8-6.3"/>
        </g>
      </g>
    </g>
  </g>
  <g id="Text">
    <text class="cls-2" transform="translate(182.15 606.56) rotate(-6.56)"><tspan x="0" y="0">F</tspan></text>
    <text class="cls-2" transform="translate(209.17 603.32) rotate(-4.33)"><tspan x="0" y="0">O</tspan></text>
    <text class="cls-2" transform="translate(243.62 600.68) rotate(-.75)"><tspan x="0" y="0">U</tspan></text>
    <text class="cls-2" transform="translate(275.65 600.27) rotate(2.98)"><tspan x="0" y="0">N</tspan></text>
    <text class="cls-2" transform="translate(307.74 601.99) rotate(5.79)"><tspan x="0" y="0">D</tspan></text>
    <text class="cls-2" transform="translate(339.88 605.37) rotate(7.1)"><tspan x="0" y="0">!</tspan></text>
    <text class="cls-2" transform="translate(219.9 562.08) rotate(-4.51)"><tspan x="0" y="0">N</tspan></text>
    <text class="cls-2" transform="translate(251.73 559.45) rotate(-.17)"><tspan x="0" y="0">O</tspan></text>
    <text class="cls-2" transform="translate(286.18 559.45) rotate(4.24)"><tspan x="0" y="0">T</tspan></text>
    <text class="cls-1" transform="translate(137.81 75.57) rotate(-8.99)"><tspan x="0" y="0">I</tspan></text>
    <text class="cls-1" transform="translate(166.04 70.51) rotate(-6.5)"><tspan x="0" y="0">M</tspan></text>
    <text class="cls-1" transform="translate(235.2 62.74) rotate(-.78)"><tspan x="0" y="0">A</tspan></text>
    <text class="cls-1" transform="translate(288.14 61.96) rotate(5.05)"><tspan x="0" y="0">G</tspan></text>
    <text class="cls-1" transform="translate(345.47 67.31) rotate(8.64)"><tspan x="0" y="0">E</tspan></text>
  </g>
</svg>