<?xml version="1.0" encoding="UTF-8" standalone="no"?>
<!-- Created with Inkscape (http://www.inkscape.org/) -->

<svg
   width="210mm"
   height="297mm"
   viewBox="0 0 210 297"
   version="1.1"
   id="svg1"
   xml:space="preserve"
   inkscape:version="1.3 (0e150ed6c4, 2023-07-21)"
   sodipodi:docname="Foundation Image Not Found.svg"
   xmlns:inkscape="http://www.inkscape.org/namespaces/inkscape"
   xmlns:sodipodi="http://sodipodi.sourceforge.net/DTD/sodipodi-0.dtd"
   xmlns:xlink="http://www.w3.org/1999/xlink"
   xmlns="http://www.w3.org/2000/svg"
   xmlns:svg="http://www.w3.org/2000/svg"><sodipodi:namedview
     id="namedview1"
     pagecolor="#ffffff"
     bordercolor="#000000"
     borderopacity="0.25"
     inkscape:showpageshadow="2"
     inkscape:pageopacity="0.0"
     inkscape:pagecheckerboard="0"
     inkscape:deskcolor="#d1d1d1"
     inkscape:document-units="mm"
     inkscape:zoom="0.71622834"
     inkscape:cx="-69.112038"
     inkscape:cy="584.31086"
     inkscape:window-width="2560"
     inkscape:window-height="1351"
     inkscape:window-x="2551"
     inkscape:window-y="-9"
     inkscape:window-maximized="1"
     inkscape:current-layer="svg1" /><defs
     id="defs1" /><g
     inkscape:label="Shields"
     id="layer1-6"
     style="display:inline;fill:#ffffff;fill-opacity:1"
     transform="translate(0.78364472,1.8672771)"><path
       style="fill:#ffffff;fill-opacity:1;stroke:#000000;stroke-width:5;stroke-linecap:round;stroke-linejoin:round;stroke-dasharray:none;stroke-opacity:1;paint-order:fill markers stroke"
       d="m 12.538258,56.16095 v 117.02374 c 0,49.71859 90.902372,98.73879 90.902372,98.73879 0,0 92.20844,-49.94203 92.20844,-94.03694 0,-32.58307 -1.04485,-121.464378 -1.04485,-121.464378 0,0 -50.01151,-13.583113 -90.11873,-13.583113 -40.107221,0 -91.947232,13.321901 -91.947232,13.321901 z"
       id="path1"
       sodipodi:nodetypes="ccccczc"
       inkscape:label="Shield" /><path
       style="fill:#ffffff;fill-opacity:1;stroke:#000000;stroke-width:3.5;stroke-linecap:round;stroke-linejoin:round;stroke-dasharray:none;stroke-opacity:1;paint-order:fill markers stroke"
       d="M 20.137093,62.083457 V 169.43143 c 0,45.60776 83.386367,90.57487 83.386367,90.57487 0,0 84.58446,-45.81272 84.58446,-86.26177 0,-29.88904 -0.95847,-111.421459 -0.95847,-111.421459 0,0 -45.87645,-12.460033 -82.66752,-12.460033 -36.791065,0 -84.344837,12.220419 -84.344837,12.220419 z"
       id="path1-5"
       sodipodi:nodetypes="ccccczc"
       inkscape:label="Inner Shield" /></g><g
     id="layer2"
     inkscape:label="Gnome"
     style="display:inline"
     transform="translate(0.78364472,1.8672771)"><path
       style="fill:#ff0000;fill-opacity:1;stroke:#000000;stroke-width:1.5;stroke-linecap:round;stroke-linejoin:round;stroke-dasharray:none;stroke-opacity:1;paint-order:fill markers stroke"
       d="M 153.00593,142.8186 V 163.781"
       id="path5"
       inkscape:label="Bottom Rope" /><path
       style="fill:#ff0000;fill-opacity:1;stroke:#000000;stroke-width:1.5;stroke-linecap:butt;stroke-linejoin:round;stroke-dasharray:none;stroke-opacity:1;paint-order:fill markers stroke"
       d="M 157.57717,99.391821 V 119.17876"
       id="path4"
       inkscape:label="Top Rope" /><path
       style="fill:#070000;fill-opacity:1;stroke:none;stroke-width:1.5;stroke-linecap:round;stroke-linejoin:round;stroke-dasharray:none;stroke-opacity:1;paint-order:fill markers stroke"
       d="m 164.01892,111.28536 c 1.75488,-1.00573 3.86589,-0.45325 4.24824,-2.86294 4.77165,2.28717 -3.27036,12.94729 2.81676,12.83706 1.90007,-0.0344 -1.22368,4.29442 -1.93941,4.98706 -0.69999,0.6774 0.55412,2.12412 -0.18466,2.90912 -0.73883,0.785 -0.13853,0.96971 0.1847,1.80089 0.32324,0.83117 -0.64647,4.43294 -2.07794,5.58735 -1.43147,1.15442 1.20059,2.81677 -0.36941,3.78648 -1.57001,0.9697 -1.66236,0.13853 -2.35501,0.55412 -0.69264,0.41558 0,1.89323 -1.33911,2.26264 -1.33912,0.36941 -6.32618,1.24677 -7.57295,-0.785 -1.24676,-2.03176 -1.66235,3.925 -4.20206,5.35648 -0.54693,0.30827 -7.88332,-0.30945 -8.12706,-0.46179 -1.47765,-0.92353 -4.01736,-2.26265 -4.01736,-3.14 0,-0.87735 1.33912,-0.18471 0.785,-1.33912 -0.55412,-1.15441 -1.91781,-4.45291 -0.60029,-4.34059 7.19195,0.61313 6.31748,2.17368 7.71147,-4.5253 0.96971,-4.98706 7.34206,-2.49353 8.21942,-2.58588 0.87735,-0.0924 1.15441,-1.70853 0.23088,-2.03177 -0.92353,-0.32323 -5.54118,0.50794 -4.94088,-3.55559 0.60029,-4.06353 6.28,-8.95824 6.97265,-8.72736 0.69265,0.23089 1.48017,1.67359 1.87013,1.36222 0.38996,-0.31137 3.20924,-6.16455 4.68689,-7.08808 z"
       id="path3"
       sodipodi:nodetypes="scssssssssssssssscssszs"
       inkscape:label="Gnome" /></g><path
     style="fill:#000000;fill-opacity:1;stroke:none;stroke-width:0.8;stroke-linecap:butt;stroke-linejoin:round;stroke-dasharray:none;stroke-opacity:1;paint-order:fill markers stroke"
     d="m 50.912589,76.60449 c 0,0 13.669856,1.541809 15.435116,12.696216 1.821753,11.511384 3.621117,24.839044 17.073138,20.283094 1.922629,-0.65116 3.553629,-10.724275 -2.704324,-12.613155 -2.243585,-0.677196 -3.441298,-2.517767 -4.89471,-3.971179 -0.977733,-0.977733 1.433791,-1.680712 1.433791,-2.146527 0,-0.655804 -6.064599,-5.980608 -3.650264,-8.658773 2.746664,-3.04681 8.477784,-0.854788 10.251183,-3.140001 2.99513,-3.859542 5.232208,-6.361935 8.219416,-6.557063 2.071082,-0.135285 0.891337,-3.793713 4.24824,-4.432945 2.88385,-0.549152 4.046655,3.487288 5.956765,3.463236 1.68729,-0.02125 2.16066,-3.585996 5.64177,-3.548228 4.15653,0.0451 3.93236,6.691265 5.48677,8.396763 3.09619,3.397133 5.12651,5.222581 7.18112,9.331811 0.80491,1.609823 1.54231,3.316691 0.79997,4.852295 -0.47627,0.985203 3.09557,3.834392 3.04765,5.725887 -0.075,2.958928 1.74528,7.052649 2.73186,10.012379 1.1415,3.42452 0.12565,8.55916 1.05741,10.44845 1.74201,3.53215 1.19368,11.46229 1.19368,11.46229 l -0.96969,0.0924 0.72383,3.38899 -0.91152,0.1258 c 0.1304,1.63985 0.30708,2.98929 0.17971,3.53044 -0.12716,0.54114 -1.08957,0.45438 -0.85804,0.88558 1.52851,2.84672 2e-5,5.80671 2e-5,5.80671 0,0 -1.39235,-2.5718 -2.07795,-1.20059 -1.31133,14.10694 2.51176,27.67475 5.67692,41.16287 0.51866,2.59336 0.5723,5.71724 0.23367,6.30657 -0.85113,1.48127 -3.23273,-0.0675 -3.44363,0.14341 -0.42673,0.42674 4.13086,9.27582 5.12328,9.98469 -1.93462,9.68081 -63.111504,12.09631 -66.711205,1.09126 -3.203682,-9.33612 3.336767,-18.18964 6.664465,-24.33349 0.750226,-1.38512 1.806726,-5.68762 1.806726,-5.68762 0,0 1.477407,2.08818 2.01752,1.54807 0.290892,-0.29089 0.158843,-4.75838 -0.271723,-9.20239 -0.446616,-4.60971 -2.558763,-8.19126 -2.040243,-9.49234 0.541609,-0.64306 3.686033,0.37961 4.456033,0.50795 1.427957,0.23799 0.998566,-1.26986 0.998566,-1.26986 0,0 4.379452,1.53595 5.207391,1.05086 0.272388,-0.15959 0.478091,-1.28174 0.478091,-1.28174 -12.071718,1.60665 -13.354085,-24.28451 -25.365331,-26.2939 -2.560785,-0.36864 -2.42138,-4.34709 -2.802336,-4.92141 -2.319389,-0.30486 -1.579855,-2.27744 -2.585881,-3.78647 -1.014474,-1.52172 -1.84706,-0.34633 -1.84706,-0.34633 0,0 -2.44424,-4.67219 -2.053093,-9.44823 0.7322,-8.940394 -0.561227,-12.94652 -1.825733,-17.541931 -0.291488,-1.059312 -4.970736,-6.768338 -4.970736,-6.768338 0,0 2.306747,-1.299495 3.8625,-0.712255 0.967954,0.365367 -2.395576,-3.644662 -2.395576,-3.644662 0,0 1.947367,-1.088509 5.258519,1.151131 0.451194,0.305184 -0.06627,-2.449675 -0.06627,-2.449675 z"
     id="path6"
     sodipodi:nodetypes="csssssssssssssssssccccsscsssscsscsscscscscscsscscscc"
     inkscape:label="Bear"
     transform="translate(0.78364472,1.8672771)" /><g
     id="layer2-6"
     inkscape:label="Shovel"
     transform="translate(8.3748975,13.609023)"><path
       style="fill:#ff0000;fill-opacity:1;stroke:none;stroke-width:2.5;stroke-linecap:round;stroke-linejoin:round;stroke-dasharray:none;stroke-opacity:1;paint-order:fill markers stroke"
       d="m 135.56992,77.580473 c 6.32601,10.956967 9.99999,14.738214 16.45646,25.598947 33.71817,-14.714223 26.38259,-34.480214 26.38259,-34.480214 0,0 -14.198,-13.349477 -42.83905,8.881267 z"
       id="path2"
       sodipodi:nodetypes="cccc"
       transform="translate(-7.5912528,-11.741746)"
       inkscape:label="Head" /><rect
       style="fill:#ffffff;fill-opacity:1;stroke:#ff0000;stroke-width:1.5;stroke-linecap:round;stroke-linejoin:round;stroke-dasharray:none;stroke-opacity:1;paint-order:fill markers stroke"
       id="rect2-0"
       width="120.91104"
       height="5.6278267"
       x="-52.22644"
       y="147.32391"
       rx="0"
       ry="0"
       transform="rotate(-30,-25.706022,8.2945978)"
       inkscape:label="Shaft" /><rect
       style="fill:#ff0000;fill-opacity:1;stroke:none;stroke-width:3.25556;stroke-linecap:round;stroke-linejoin:round;stroke-dasharray:none;stroke-opacity:1;paint-order:fill markers stroke"
       id="rect2"
       width="23.13077"
       height="8.3338747"
       x="65.424294"
       y="146.03049"
       rx="0"
       ry="0"
       transform="rotate(-30,-25.706022,8.2945978)"
       inkscape:label="Stem" /></g><g
     id="layer2-6-5"
     inkscape:label="Shovel"
     transform="rotate(60,90.228594,113.70755)"><path
       style="fill:#ff0000;fill-opacity:1;stroke:none;stroke-width:2.5;stroke-linecap:round;stroke-linejoin:round;stroke-dasharray:none;stroke-opacity:1;paint-order:fill markers stroke"
       d="m 135.56992,77.580473 c 6.32601,10.956967 9.99999,14.738214 16.45646,25.598947 33.71817,-14.714223 26.38259,-34.480214 26.38259,-34.480214 0,0 -14.198,-13.349477 -42.83905,8.881267 z"
       id="path2-8"
       sodipodi:nodetypes="cccc"
       transform="translate(-7.5912528,-11.741746)"
       inkscape:label="Head" /><rect
       style="fill:#ffffff;fill-opacity:1;stroke:#ff0000;stroke-width:1.5;stroke-linecap:round;stroke-linejoin:round;stroke-dasharray:none;stroke-opacity:1;paint-order:fill markers stroke"
       id="rect2-0-1"
       width="120.91104"
       height="5.6278267"
       x="-52.22644"
       y="147.32391"
       rx="0"
       ry="0"
       transform="rotate(-30,-25.706022,8.2945978)"
       inkscape:label="Shaft" /><rect
       style="fill:#ff0000;fill-opacity:1;stroke:none;stroke-width:3.25556;stroke-linecap:round;stroke-linejoin:round;stroke-dasharray:none;stroke-opacity:1;paint-order:fill markers stroke"
       id="rect2-7"
       width="23.13077"
       height="8.3338747"
       x="65.424294"
       y="146.03049"
       rx="0"
       ry="0"
       transform="rotate(-30,-25.706022,8.2945978)"
       inkscape:label="Stem" /></g><path
     d="m 90.766103,150.80891 c -3.082275,-0.79241 -5.058117,-2.14408 -5.062712,0.5577 0,0 -0.792505,-0.29427 -2.646443,-0.52601 -2.691677,-0.33646 -4.74681,-2.71504 -6.46471,-4.43294 -0.457642,-0.45764 0.67123,1.64997 0.09235,1.93941 -1.13451,0.56726 -4.81684,-0.95386 -5.725884,-1.40838 -2.602689,-1.30134 -2.947889,-3.51464 -5.356474,-4.3175 -1.932849,-0.64429 -11.631192,4.48176 -14.684127,2.95529 -0.326947,-0.16347 1.126917,-4.10273 1.200589,-4.5253 0.742658,-4.25973 -1.916325,-3.62485 -1.916325,-3.62485 5.284051,-10.45762 12.70558,-12.32561 16.877511,-11.9828 0.671259,0.0552 5.448826,1.45456 5.448826,1.45456"
     style="fill:#000000;fill-opacity:1;stroke:none;stroke-width:0.8;stroke-linecap:butt;stroke-linejoin:round;stroke-dasharray:none;stroke-opacity:1;paint-order:fill markers stroke"
     id="path1-9"
     transform="translate(0.78364472,1.8672771)" /><g
     id="layer3"
     inkscape:label="Banner"
     style="display:inline"
     transform="translate(0.78364472,1.8672771)"><path
       style="fill:#ffffff;fill-opacity:1;stroke:#000000;stroke-width:2;stroke-linecap:round;stroke-linejoin:round;stroke-dasharray:none;stroke-opacity:1;paint-order:fill markers stroke"
       d="m 17.631926,230.12929 3.787599,28.7335 33.043535,-7.05277 -7.05277,-27.55805 z"
       id="path8"
       inkscape:label="Left" /><g
       id="layer4"
       inkscape:label="Left Shading"
       style="display:inline"><path
         style="display:inline;fill:none;fill-opacity:1;stroke:#000000;stroke-width:2;stroke-linecap:butt;stroke-linejoin:round;stroke-dasharray:none;stroke-opacity:1;paint-order:fill markers stroke"
         d="m 30.039577,242.14512 24.423483,9.6649"
         id="path9"
         inkscape:label="Bottom"
         sodipodi:nodetypes="cc" /><path
         style="display:inline;fill:none;fill-opacity:1;stroke:#000000;stroke-width:2;stroke-linecap:butt;stroke-linejoin:round;stroke-dasharray:none;stroke-opacity:1;paint-order:fill markers stroke"
         d="m 38.455672,240.52665 0.756827,5.24839"
         id="path10"
         sodipodi:nodetypes="cc" /><path
         style="display:inline;fill:none;fill-opacity:1;stroke:#000000;stroke-width:2;stroke-linecap:butt;stroke-linejoin:round;stroke-dasharray:none;stroke-opacity:1;paint-order:fill markers stroke"
         d="m 41.407826,239.86041 1.269608,7.28578"
         id="path11"
         sodipodi:nodetypes="cc" /><path
         style="display:inline;fill:none;fill-opacity:1;stroke:#000000;stroke-width:2;stroke-linecap:butt;stroke-linejoin:round;stroke-dasharray:none;stroke-opacity:1;paint-order:fill markers stroke"
         d="m 44.193252,239.26523 1.713149,9.15874"
         id="path12"
         sodipodi:nodetypes="cc" /><path
         style="display:inline;fill:none;fill-opacity:1;stroke:#000000;stroke-width:2;stroke-linecap:butt;stroke-linejoin:round;stroke-dasharray:none;stroke-opacity:1;paint-order:fill markers stroke"
         d="m 47.00789,238.6959 2.552098,11.17387"
         id="path13"
         sodipodi:nodetypes="cc" /><path
         style="display:inline;fill:none;fill-opacity:1;stroke:#000000;stroke-width:2;stroke-linecap:butt;stroke-linejoin:round;stroke-dasharray:none;stroke-opacity:1;paint-order:fill markers stroke"
         d="m 35.539287,241.22171 0.686732,2.99619"
         id="path15"
         sodipodi:nodetypes="cc" /></g><path
       style="fill:#ffffff;fill-opacity:1;stroke:#000000;stroke-width:2;stroke-linecap:round;stroke-linejoin:round;stroke-dasharray:none;stroke-opacity:1;paint-order:fill markers stroke"
       d="m 189.14448,229.81322 -3.7876,28.7335 -33.04353,-7.05277 7.05277,-27.55805 z"
       id="path8-3"
       inkscape:label="Right" /><g
       id="g22"
       inkscape:label="Right Shading"
       style="display:inline"
       transform="matrix(-1,0,0,1,208.20019,0.04617654)"><path
         style="display:inline;fill:none;fill-opacity:1;stroke:#000000;stroke-width:2;stroke-linecap:butt;stroke-linejoin:round;stroke-dasharray:none;stroke-opacity:1;paint-order:fill markers stroke"
         d="m 30.039577,242.14512 25.33773,8.48944"
         id="path16"
         inkscape:label="Bottom" /><path
         style="display:inline;fill:none;fill-opacity:1;stroke:#000000;stroke-width:2;stroke-linecap:butt;stroke-linejoin:round;stroke-dasharray:none;stroke-opacity:1;paint-order:fill markers stroke"
         d="m 38.387227,240.10227 0.835081,5.11954"
         id="path17"
         sodipodi:nodetypes="cc" /><path
         style="display:inline;fill:none;fill-opacity:1;stroke:#000000;stroke-width:2;stroke-linecap:butt;stroke-linejoin:round;stroke-dasharray:none;stroke-opacity:1;paint-order:fill markers stroke"
         d="m 41.340785,239.44433 1.367657,6.94551"
         id="path18"
         sodipodi:nodetypes="cc" /><path
         style="display:inline;fill:none;fill-opacity:1;stroke:#000000;stroke-width:2;stroke-linecap:butt;stroke-linejoin:round;stroke-dasharray:none;stroke-opacity:1;paint-order:fill markers stroke"
         d="m 44.0512,238.87418 1.930915,8.61251"
         id="path19"
         sodipodi:nodetypes="cc" /><path
         style="display:inline;fill:none;fill-opacity:1;stroke:#000000;stroke-width:2;stroke-linecap:butt;stroke-linejoin:round;stroke-dasharray:none;stroke-opacity:1;paint-order:fill markers stroke"
         d="m 47.456487,238.20193 1.990589,10.4457"
         id="path20"
         sodipodi:nodetypes="cc" /><path
         style="display:inline;fill:none;fill-opacity:1;stroke:#000000;stroke-width:2;stroke-linecap:butt;stroke-linejoin:round;stroke-dasharray:none;stroke-opacity:1;paint-order:fill markers stroke"
         d="m 50.049797,237.72189 2.949937,12.11606"
         id="path21"
         sodipodi:nodetypes="cc" /><path
         style="display:inline;fill:none;fill-opacity:1;stroke:#000000;stroke-width:2;stroke-linecap:butt;stroke-linejoin:round;stroke-dasharray:none;stroke-opacity:1;paint-order:fill markers stroke"
         d="m 35.441816,240.7978 0.813553,3.42993"
         id="path22"
         sodipodi:nodetypes="cc" /></g><path
       style="display:inline;fill:#ffffff;fill-opacity:1;stroke:#000000;stroke-width:2;stroke-linecap:butt;stroke-linejoin:round;stroke-dasharray:none;stroke-opacity:1;paint-order:fill markers stroke"
       d="m 24.565897,213.15071 c 40.65972,-23.4749 127.866033,-18.43342 157.554213,-1.29294 1.66179,2.87831 -3.50927,27.53389 -4.24824,30.29178 C 133.6335,230.29591 77.127879,230.01877 30.476489,242.51897 28.98834,236.96512 24.565897,218.18155 24.565897,213.15071 Z"
       id="path7"
       sodipodi:nodetypes="ccccc"
       inkscape:label="Main" /><g
       id="layer7"
       inkscape:label="Main Right Shading"><path
         style="fill:none;fill-opacity:1;stroke:#000000;stroke-width:2;stroke-linecap:round;stroke-linejoin:round;stroke-dasharray:none;stroke-opacity:1;paint-order:fill markers stroke"
         d="m 178.10841,215.24551 4.25847,0.90928"
         id="path26"
         sodipodi:nodetypes="cc" /><path
         style="fill:none;fill-opacity:1;stroke:#000000;stroke-width:2;stroke-linecap:round;stroke-linejoin:round;stroke-dasharray:none;stroke-opacity:1;paint-order:fill markers stroke"
         d="m 177.26651,220.67108 4.4469,1.22285"
         id="path27"
         sodipodi:nodetypes="cc" /><path
         style="fill:none;fill-opacity:1;stroke:#000000;stroke-width:2;stroke-linecap:round;stroke-linejoin:round;stroke-dasharray:none;stroke-opacity:1;paint-order:fill markers stroke"
         d="m 176.42461,226.09665 4.5031,0.76837"
         id="path28"
         sodipodi:nodetypes="cc" /><path
         style="fill:none;fill-opacity:1;stroke:#000000;stroke-width:2;stroke-linecap:round;stroke-linejoin:round;stroke-dasharray:none;stroke-opacity:1;paint-order:fill markers stroke"
         d="m 175.30208,231.66587 4.59409,0.87992"
         id="path29"
         sodipodi:nodetypes="cc" /><path
         style="fill:none;fill-opacity:1;stroke:#000000;stroke-width:2;stroke-linecap:round;stroke-linejoin:round;stroke-dasharray:none;stroke-opacity:1;paint-order:fill markers stroke"
         d="m 174.55372,237.57619 4.1525,0.88032"
         id="path30"
         sodipodi:nodetypes="cc" /></g><g
       id="g35"
       inkscape:label="Main Leftt Shading"
       style="display:inline"
       transform="matrix(1,0,0,-1,-148.17422,454.34482)"><path
         style="fill:none;fill-opacity:1;stroke:#000000;stroke-width:2;stroke-linecap:round;stroke-linejoin:round;stroke-dasharray:none;stroke-opacity:1;paint-order:fill markers stroke"
         d="m 177.7704,215.27859 4.39819,1.37009"
         id="path31"
         sodipodi:nodetypes="cc" /><path
         style="fill:none;fill-opacity:1;stroke:#000000;stroke-width:2;stroke-linecap:round;stroke-linejoin:round;stroke-dasharray:none;stroke-opacity:1;paint-order:fill markers stroke"
         d="m 176.46283,220.76473 c 0.37418,0 4.86386,1.21597 4.86386,1.21597"
         id="path32"
         sodipodi:nodetypes="cc" /><path
         style="fill:none;fill-opacity:1;stroke:#000000;stroke-width:2;stroke-linecap:round;stroke-linejoin:round;stroke-dasharray:none;stroke-opacity:1;paint-order:fill markers stroke"
         d="m 175.27153,226.0837 5.02617,1.32257"
         id="path33"
         sodipodi:nodetypes="cc" /><path
         style="fill:none;fill-opacity:1;stroke:#000000;stroke-width:2;stroke-linecap:round;stroke-linejoin:round;stroke-dasharray:none;stroke-opacity:1;paint-order:fill markers stroke"
         d="m 174.17141,231.39127 5.28439,2.09539"
         id="path34"
         sodipodi:nodetypes="cc" /><path
         style="fill:none;fill-opacity:1;stroke:#000000;stroke-width:2;stroke-linecap:round;stroke-linejoin:round;stroke-dasharray:none;stroke-opacity:1;paint-order:fill markers stroke"
         d="m 173.19322,236.86184 4.85942,2.23747"
         id="path35"
         sodipodi:nodetypes="cc" /></g></g><path
     style="display:inline;fill:#ff0000;fill-opacity:1;stroke:#ff0000;stroke-width:2;stroke-linecap:round;stroke-linejoin:round;stroke-opacity:1;paint-order:fill markers stroke"
     d="m 89.45914,80.943601 8.136835,7.444591"
     id="path14"
     sodipodi:nodetypes="cc"
     inkscape:label="Eye Cross #1" /><path
     style="display:inline;fill:#ff0000;fill-opacity:1;stroke:#ff0000;stroke-width:2;stroke-linecap:round;stroke-linejoin:round;stroke-opacity:1;paint-order:fill markers stroke"
     d="m 97.30211,80.890501 -7.497692,7.758903"
     id="path24"
     sodipodi:nodetypes="cc"
     inkscape:label="Eye Cross #2" /><g
     id="layer6"
     inkscape:label="Text"
     style="display:inline"
     transform="translate(0.78364472,1.8672771)"><text
       xml:space="preserve"
       id="text8"
       style="font-style:normal;font-variant:normal;font-weight:bold;font-stretch:normal;font-size:25.4px;line-height:1;font-family:'Times New Roman';-inkscape-font-specification:'Times New Roman,  Bold';text-align:center;letter-spacing:-0.219636px;text-anchor:middle;white-space:pre;display:inline;fill:#000000;fill-opacity:1;stroke:none;stroke-width:7.55906;stroke-linecap:round;stroke-linejoin:round;stroke-dasharray:none;stroke-opacity:1;paint-order:fill markers stroke"
       inkscape:label="IMAGE"><textPath
         xlink:href="#path23"
         startOffset="50%"
         id="textPath23">IMAGE</textPath></text><text
       xml:space="preserve"
       id="text9"
       style="font-style:normal;font-variant:normal;font-weight:bold;font-stretch:normal;font-size:16.9333px;line-height:1;font-family:'Times New Roman';-inkscape-font-specification:'Times New Roman,  Bold';text-align:center;letter-spacing:-0.0661458px;text-anchor:middle;white-space:pre;fill:#000000;fill-opacity:1;stroke:none;stroke-width:7.55906;stroke-linecap:round;stroke-linejoin:round;stroke-dasharray:none;stroke-opacity:1;paint-order:fill markers stroke"
       inkscape:label="NOT"><textPath
         xlink:href="#path25"
         startOffset="50%"
         id="textPath25">NOT<tspan
   id="tspan9"
   style="font-size:16.9333px" /></textPath></text><path
       style="fill:none;fill-opacity:1;stroke:none;stroke-width:3.49999;stroke-linecap:butt;stroke-linejoin:round;stroke-dasharray:none;stroke-opacity:1;paint-order:fill markers stroke"
       d="M 12.909118,51.075205 C 86.268481,31.740179 120.64629,31.151701 194.38512,51.262294"
       id="path23"
       sodipodi:nodetypes="cc"
       inkscape:label="IMAGE Text Path" /><path
       style="fill:none;fill-opacity:1;stroke:none;stroke-width:3.49999;stroke-linecap:butt;stroke-linejoin:round;stroke-dasharray:none;stroke-opacity:1;paint-order:fill markers stroke"
       d="m 67.56143,215.65548 c 20.614662,-4.11006 54.74475,-4.81262 76.27081,0.74286"
       id="path25"
       inkscape:label="NOT Text Path"
       sodipodi:nodetypes="cc" /><path
       style="fill:none;fill-opacity:1;stroke:none;stroke-width:2;stroke-linecap:round;stroke-linejoin:round;stroke-dasharray:none;stroke-opacity:1;paint-order:fill markers stroke"
       d="M 38.364583,236.27291 C 70.643749,222.77916 135.46666,222.77917 170.39166,234.95"
       id="path37"
       sodipodi:nodetypes="cc"
       inkscape:label="FOUND! Text Path" /><text
       xml:space="preserve"
       style="font-style:normal;font-variant:normal;font-weight:bold;font-stretch:normal;font-size:16.9333px;line-height:1;font-family:'Times New Roman';-inkscape-font-specification:'Times New Roman,  Bold';text-align:center;letter-spacing:-0.0661458px;text-anchor:middle;fill:#000000;fill-opacity:1;stroke:none;stroke-width:2;stroke-linecap:round;stroke-linejoin:round;stroke-dasharray:none;stroke-opacity:1;paint-order:fill markers stroke"
       id="text37"
       inkscape:label="FOUND!"><textPath
         xlink:href="#path37"
         startOffset="50%"
         id="textPath37"
         inkscape:label="textPath37">FOUND!<tspan
   id="tspan37"
   style="fill:#000000;fill-opacity:1;stroke-width:2" /></textPath></text></g></svg>
